<svg width="281" height="77" viewBox="0 0 281 77" fill="none" xmlns="http://www.w3.org/2000/svg">
<path d="M106.682 6.45C107.2 6.506 107.746 6.87 108.684 6.87C109.846 6.87 111.344 6.002 111.344 3.972C111.344 2.376 109.846 1.2 107.9 1.2C107.256 1.2 106.458 1.256 105.772 1.256C104.778 1.256 103.532 1.2 103.532 1.2V1.704L103.966 1.774C104.596 1.872 104.75 2.026 104.75 2.726V9.138C104.75 9.922 104.414 10.314 103.854 10.426L103.518 10.496V11C103.518 11 104.554 10.944 105.66 10.944C106.654 10.944 108.208 11 108.208 11V10.496L107.718 10.426C106.99 10.328 106.682 10.174 106.682 9.474V6.45ZM106.682 1.858C106.808 1.816 107.074 1.774 107.34 1.774C108.446 1.774 109.384 2.656 109.384 3.972C109.384 5.05 108.838 6.184 107.942 6.184C107.522 6.184 107.144 5.988 106.682 5.96V1.858ZM116.909 1.116L113.927 9.11C113.661 9.838 113.213 10.272 112.653 10.426L112.401 10.496V11C112.401 11 113.255 10.944 114.039 10.944C114.977 10.944 115.915 11 115.915 11V10.496L115.495 10.426C114.893 10.328 114.669 10.118 114.669 9.754C114.669 9.586 114.725 9.348 114.795 9.138L115.397 7.402H118.491L119.093 9.18C119.149 9.348 119.191 9.502 119.191 9.656C119.191 10.062 118.939 10.314 118.505 10.426L118.225 10.496V11C118.225 11 119.121 10.944 120.549 10.944C121.795 10.944 122.551 11 122.551 11V10.496L122.271 10.426C121.781 10.3 121.361 10.034 121.081 9.25L118.085 0.976L116.909 1.116ZM116.965 2.936L118.225 6.618H115.677L116.965 2.936ZM128.428 6.758C128.428 6.758 128.582 6.66 128.834 6.66C129.31 6.66 129.562 6.94 129.828 7.472L130.794 9.376C131.354 10.496 132.236 11.224 133.692 11.224C134.574 11.224 135.022 11.07 135.022 11.07V10.664C134.056 10.664 133.314 10.02 132.824 9.236L131.774 7.528C131.48 7.052 131.144 6.618 130.71 6.408C131.326 6.254 133.034 5.596 133.034 3.72C133.034 2.544 131.956 1.2 129.59 1.2C129.016 1.2 128.26 1.256 127.518 1.256C126.524 1.256 125.278 1.2 125.278 1.2V1.704L125.712 1.774C126.342 1.872 126.496 2.026 126.496 2.726V9.138C126.496 9.922 126.16 10.314 125.6 10.426L125.264 10.496V11C125.264 11 126.3 10.944 127.406 10.944C128.4 10.944 129.646 11 129.646 11V10.496L129.212 10.426C128.582 10.328 128.428 10.174 128.428 9.474V6.758ZM128.428 1.858C128.554 1.816 128.722 1.774 129.002 1.774C130.01 1.774 131.018 2.474 131.018 3.818C131.018 4.91 130.444 5.736 129.982 6.058C129.982 6.058 129.716 5.96 129.296 5.96C128.764 5.96 128.428 6.184 128.428 6.184V1.858ZM137.067 1.704L137.501 1.774C138.131 1.872 138.285 2.026 138.285 2.726V9.138C138.285 9.922 137.949 10.314 137.389 10.426L137.053 10.496V11C137.053 11 138.089 10.944 139.195 10.944C140.189 10.944 141.435 11 141.435 11V10.496L141.001 10.426C140.371 10.328 140.217 10.174 140.217 9.474V6.408C140.315 6.38 140.413 6.352 140.595 6.352C141.015 6.352 141.379 6.562 141.687 7.066L143.255 9.614C143.927 10.692 144.865 11.252 146.027 11.252C147.021 11.252 147.539 10.916 147.539 10.916V10.482C147.539 10.482 147.441 10.524 147.175 10.524C146.531 10.524 145.817 9.95 145.229 9.11L142.737 5.568L144.809 2.936C145.341 2.25 145.789 1.914 146.489 1.774L146.853 1.704V1.2C146.853 1.2 145.929 1.256 144.921 1.256C143.731 1.256 142.737 1.2 142.737 1.2V1.704L143.101 1.774C143.437 1.844 143.591 2.012 143.591 2.236C143.591 2.39 143.521 2.572 143.381 2.768L141.127 5.736H140.217V3.062C140.217 2.278 140.553 1.886 141.113 1.774L141.449 1.704V1.2C141.449 1.2 140.413 1.256 139.307 1.256C138.313 1.256 137.067 1.2 137.067 1.2V1.704ZM149.841 1.704L150.275 1.774C150.905 1.872 151.059 2.026 151.059 2.726V9.138C151.059 9.922 150.723 10.314 150.163 10.426L149.827 10.496V11C149.827 11 150.863 10.944 151.969 10.944C152.963 10.944 154.209 11 154.209 11V10.496L153.775 10.426C153.145 10.328 152.991 10.174 152.991 9.474V3.062C152.991 2.278 153.327 1.886 153.887 1.774L154.223 1.704V1.2C154.223 1.2 153.187 1.256 152.081 1.256C151.087 1.256 149.841 1.2 149.841 1.2V1.704ZM166.284 1.256C165.318 1.256 164.1 1.2 164.1 1.2V1.704L164.576 1.774C165.318 1.9 165.738 2.054 165.738 2.908V8.004L160.796 2.698C160.278 2.138 160.054 1.774 159.97 1.27C158.416 1.27 157.044 1.2 157.044 1.2V1.704L157.464 1.774C158.094 1.872 158.276 2.096 158.276 2.726V9.152C158.276 9.922 158.038 10.272 157.338 10.426L157.03 10.496V11C157.03 11 157.94 10.944 158.948 10.944C159.76 10.944 160.894 11 160.894 11V10.496L160.488 10.426C159.662 10.286 159.228 10.118 159.228 9.124V3.902L165.934 11.14L166.648 11.056V3.16C166.648 2.208 166.956 1.914 167.53 1.774L167.824 1.704V1.2C167.824 1.2 167.25 1.256 166.284 1.256ZM176.127 6.772V7.276L176.379 7.318C177.121 7.444 177.387 7.654 177.387 8.242V9.432C177.387 10.062 176.981 10.524 175.973 10.524C173.397 10.524 172.193 8.34 172.193 5.918C172.193 3.384 173.397 1.704 175.497 1.704C177.373 1.704 178.353 2.684 178.633 4H179.095V1.382C177.695 1.382 177.093 1.004 175.637 1.004C172.151 1.004 170.107 3.566 170.107 6.352C170.107 9.488 172.291 11.224 175.189 11.224C176.953 11.224 177.625 10.692 179.179 10.692V8.564C179.179 7.878 179.473 7.444 180.019 7.318L180.201 7.276V6.772H176.127Z" fill="#CC9900"></path>
<path d="M82.6312 70.0425C82.6312 70.8729 82.2877 71.7575 81.3477 71.7575C81.0946 71.7575 80.8777 71.7034 80.6969 71.6492C80.6065 71.6311 80.5342 71.6131 80.4619 71.595V68.3816C80.5703 68.3635 80.733 68.3274 80.9138 68.3274C81.7815 68.3274 82.6312 68.851 82.6312 70.0425ZM81.2754 67.6775C81.1307 67.6775 80.8054 67.6955 80.48 67.6955C80.1726 67.6955 79.8653 67.7136 79.7207 67.7136C79.1422 67.7136 78.2564 67.6775 78.2384 67.6775H78.0938V68.2552L78.5818 68.3274C78.9795 68.3816 79.1242 68.4899 79.1242 68.9232V74.1947C79.1242 74.9529 78.7626 75.1154 78.4914 75.1696L78.0938 75.2418V75.8195H78.2384C78.2384 75.8195 78.9795 75.7834 79.7749 75.7834C80.6607 75.7834 81.4923 75.8195 81.5104 75.8195H81.655V75.2418L81.0584 75.1696C80.6246 75.1154 80.48 74.971 80.48 74.5738V72.2088C80.5342 72.2269 80.5703 72.2449 80.6246 72.263C80.8777 72.3713 81.2392 72.4977 81.7634 72.4977C82.6854 72.4977 84.0593 71.8478 84.0593 70.0244C84.0593 68.4177 82.6131 67.6775 81.2754 67.6775Z" fill="#CC9900"></path>
<path d="M90.3499 69.9702C90.3499 70.8368 89.8799 71.4506 89.5183 71.577C89.1748 71.4506 88.6506 71.4506 88.271 71.6131V68.3455C88.3975 68.3274 88.5421 68.2913 88.7229 68.2913C89.7533 68.3274 90.3499 68.9232 90.3499 69.9702ZM91.543 74.0503L90.6933 72.6421C90.4945 72.3352 90.3499 72.1186 90.1872 71.9741C90.6933 71.7936 91.778 71.2701 91.778 69.9522C91.778 68.6163 90.6572 67.6775 89.0302 67.6775C88.7771 67.6775 88.5421 67.6955 88.3071 67.6955C88.0902 67.6955 87.8552 67.7136 87.6021 67.7136C86.9694 67.7136 86.0294 67.6775 86.0294 67.6775H85.8848V68.2552L86.3729 68.3274C86.7706 68.3816 86.9152 68.4899 86.9152 68.9232V74.1947C86.9152 74.9529 86.5536 75.1154 86.3006 75.1695L85.9028 75.2418V75.8014H86.0475C86.0655 75.8014 86.8971 75.7653 87.584 75.7653C88.2348 75.7653 89.1929 75.8014 89.1929 75.8014H89.3375V75.2237L88.8133 75.1515C88.4156 75.0973 88.271 74.989 88.271 74.5557V72.2449C88.3433 72.2269 88.4337 72.2088 88.5602 72.2088C88.9398 72.2088 89.1929 72.4074 89.446 72.9129L90.3318 74.5918C90.856 75.5667 91.5791 76 92.6999 76C93.2242 76 93.5857 75.8917 93.5857 75.8736L93.6761 75.8375V75.3862H93.5496C92.5553 75.3681 92.0491 74.8988 91.543 74.0503Z" fill="#CC9900"></path>
<path d="M99.5511 72.1367H97.6892L98.6292 69.4829L99.5511 72.1367ZM101.847 74.5559L99.1715 67.4971L98.5569 67.5873L96.1345 74.2309C95.9176 74.7905 95.7368 75.0974 95.3391 75.1697L94.9414 75.2419V75.8196L95.086 75.8015C95.086 75.8015 95.5199 75.7654 96.1707 75.7654C97.0203 75.7654 97.7434 75.8015 97.7434 75.8015H97.888V75.2238L97.3457 75.1516C96.8395 75.0794 96.8395 74.9711 96.8395 74.8266C96.8395 74.7364 96.8576 74.6281 96.8938 74.5017L97.4542 72.8408H99.8042L100.31 74.2489C100.401 74.4836 100.455 74.6642 100.455 74.7725C100.455 74.953 100.419 75.0794 99.985 75.1516L99.5873 75.2238V75.8015L99.7319 75.7835C99.7319 75.7835 100.328 75.7474 101.359 75.7474C102.209 75.7474 102.877 75.7835 102.877 75.7835H103.022V75.2058L102.534 75.1336C102.209 75.1155 101.992 74.9169 101.847 74.5559Z" fill="#CC9900"></path>
<path d="M109.169 72.7144L109.658 72.7866C110.055 72.8408 110.2 72.9491 110.2 73.3824V74.4114C110.2 74.953 109.712 75.2599 108.862 75.2599C107.271 75.2599 105.662 74.1226 105.662 71.5771C105.662 69.5912 106.801 68.2011 108.428 68.2011C109.748 68.2011 110.67 68.7788 110.869 69.7718L110.887 69.8801H111.447V67.804H111.321C110.995 67.804 110.616 67.7498 110.218 67.6776C109.748 67.6054 109.206 67.4971 108.645 67.4971C105.753 67.4971 104.234 69.7176 104.234 71.902C104.234 74.6822 106.422 75.9459 108.446 75.9459C109.278 75.9459 109.929 75.8015 110.435 75.6751C110.796 75.5849 111.122 75.5127 111.411 75.5127H111.538V73.6712C111.538 73.3282 111.646 72.8769 112.134 72.7505L112.423 72.6783V72.1187H109.206V72.7144H109.169Z" fill="#CC9900"></path>
<path d="M117.412 70.8908C116.58 70.3854 115.875 69.9701 115.875 69.3022C115.875 68.6703 116.4 68.237 117.141 68.237C118.081 68.237 118.677 68.7967 118.677 69.6452V69.7715H119.256L119.364 67.7676H119.22C118.912 67.7676 118.641 67.7135 118.334 67.6593C118.008 67.5871 117.683 67.533 117.285 67.533C115.514 67.533 114.718 68.6342 114.718 69.7174C114.718 71.1797 115.839 71.8115 116.833 72.3892C117.665 72.8586 118.37 73.2739 118.37 74.0501C118.37 74.8625 117.593 75.2958 116.815 75.2958C115.695 75.2958 115.152 74.4654 115.098 73.7071V73.5808H114.52V75.6749H114.646C115.044 75.6749 115.279 75.7471 115.568 75.8193C115.875 75.9096 116.255 76.0179 116.888 76.0179C118.515 76.0179 119.599 75.0611 119.599 73.653C119.617 72.2268 118.442 71.5227 117.412 70.8908Z" fill="#CC9900"></path>
<path d="M127.246 73.5086C126.939 74.321 126.451 75.1515 125.113 75.1515C124.896 75.1515 124.372 75.0973 124.372 74.5557V71.9922H125.149C125.782 71.9922 125.927 72.281 125.963 72.5518L126.035 72.9129H126.559V72.7684C126.559 72.7684 126.523 72.1546 126.523 71.5228C126.523 70.927 126.559 70.1146 126.559 70.0966V69.9521H126.035L125.927 70.5118C125.854 70.9812 125.674 71.252 125.041 71.252H124.372V68.3274C124.499 68.3093 124.716 68.2732 124.932 68.2732C126.324 68.2732 126.74 69.0134 126.849 69.6272L126.867 69.7355H127.373V67.6233H127.246C127.228 67.6233 125.547 67.6594 123.721 67.6594C123.197 67.6594 122.149 67.6233 122.13 67.6233H122.004V68.201L122.492 68.2732C122.89 68.3274 123.034 68.4357 123.034 68.869V74.1405C123.034 74.8987 122.673 75.0612 122.402 75.1154L122.004 75.1876V75.7653H122.149C122.149 75.7653 122.89 75.7292 123.685 75.7292C124.734 75.7292 127.264 75.7653 127.301 75.7653H127.409L127.789 73.4364L127.283 73.3823L127.246 73.5086Z" fill="#CC9900"></path>
<path d="M134.46 69.9702C134.46 70.8368 133.99 71.4506 133.629 71.577C133.285 71.4506 132.743 71.4506 132.381 71.6131V68.3455C132.508 68.3274 132.652 68.2913 132.833 68.2913C133.864 68.3274 134.46 68.9232 134.46 69.9702ZM135.671 74.0503L134.822 72.6421C134.623 72.3352 134.478 72.1186 134.316 71.9741C134.822 71.7936 135.906 71.2701 135.906 69.9522C135.906 68.6163 134.786 67.6775 133.177 67.6775C132.924 67.6775 132.689 67.6955 132.454 67.6955C132.219 67.6955 132.002 67.7136 131.749 67.7136C131.098 67.7136 130.176 67.6775 130.158 67.6775H130.031V68.2552L130.519 68.3274C130.917 68.3816 131.062 68.4899 131.062 68.9232V74.1947C131.062 74.9529 130.7 75.1154 130.429 75.1695L130.031 75.2418V75.8014H130.158C130.158 75.8014 131.007 75.7653 131.694 75.7653C132.345 75.7653 133.303 75.8014 133.303 75.8014H133.43V75.2237L132.906 75.1515C132.508 75.0973 132.363 74.989 132.363 74.5557V72.2449C132.417 72.2269 132.526 72.2088 132.652 72.2088C133.032 72.2088 133.285 72.4074 133.538 72.9129L134.424 74.5918C134.948 75.5667 135.671 76 136.792 76C137.316 76 137.678 75.8917 137.696 75.8736L137.786 75.8375V75.3862H137.66C136.666 75.3681 136.178 74.8988 135.671 74.0503Z" fill="#CC9900"></path>
<path d="M153.947 67.7136C153.297 67.7136 152.664 67.6775 152.646 67.6775H152.501V68.2552L153.007 68.3274C153.387 68.3816 153.387 68.526 153.387 68.5982C153.387 68.6885 153.351 68.8148 153.315 68.9412L151.832 73.7614L150.26 68.7246C150.097 68.183 150.079 67.858 150.079 67.858V67.7317H149.609C148.922 67.7317 148.271 67.6955 148.271 67.6955H148.126V68.2732L148.615 68.3455C148.994 68.3996 149.03 68.544 149.03 68.6704C149.03 68.7246 149.012 68.8329 149.012 68.8871L147.494 73.7614L145.975 69.1398L145.957 69.0856C145.939 69.0134 145.903 68.9232 145.903 68.869C145.903 68.5802 146.048 68.4357 146.409 68.3455L146.734 68.2732V67.7136H146.59C146.59 67.7136 145.921 67.7497 144.999 67.7497C144.149 67.7497 143.481 67.7136 143.481 67.7136H143.336V68.2913L143.824 68.3635C144.24 68.4177 144.348 68.526 144.511 68.9773L146.933 75.9278L146.969 76.0361L147.512 75.9639L149.356 70.3674L151.236 76.0361L151.778 75.9639L154.038 69.3564C154.219 68.8148 154.544 68.4538 154.905 68.3635L155.231 68.2913V67.7317H155.086C155.122 67.6775 154.616 67.7136 153.947 67.7136Z" fill="#CC9900"></path>
<path d="M159.063 67.7136C158.195 67.7136 157.49 67.6775 157.49 67.6775H157.346V68.2552L157.834 68.3274C158.25 68.3816 158.376 68.4718 158.376 68.9232V74.1947C158.376 74.971 158.015 75.1154 157.743 75.1696L157.346 75.2418V75.8195H157.49C157.49 75.8195 158.25 75.7834 159.027 75.7834C159.895 75.7834 160.6 75.8195 160.6 75.8195H160.744V75.2418L160.256 75.1696C159.858 75.1154 159.714 75.0071 159.714 74.5738V69.3023C159.714 68.7787 159.949 68.4357 160.419 68.3274L160.744 68.2552V67.6955H160.618C160.582 67.6775 159.84 67.7136 159.063 67.7136Z" fill="#CC9900"></path>
<path d="M168.354 73.3281C167.993 74.4294 167.486 75.1695 166.113 75.1695C165.697 75.1695 165.516 74.989 165.516 74.5738V69.3023C165.516 68.7787 165.751 68.4357 166.221 68.3274L166.546 68.2552V67.6956H166.42C166.402 67.6956 165.661 67.7317 164.883 67.7317C164.016 67.7317 163.311 67.6956 163.311 67.6956H163.166V68.2733L163.654 68.3455C164.052 68.3996 164.196 68.4899 164.196 68.9412V74.2127C164.196 74.989 163.835 75.1334 163.564 75.1876L163.166 75.2598V75.8375H163.311C163.311 75.8375 164.07 75.8014 164.847 75.8014C165.444 75.8014 166.076 75.8014 166.727 75.8195C167.36 75.8195 167.975 75.8375 168.535 75.8375H168.643L168.915 73.3101L168.408 73.2379L168.354 73.3281Z" fill="#CC9900"></path>
<path d="M177.664 71.9019C177.664 74.7724 176.001 75.1696 174.193 75.1696C173.976 75.1696 173.452 75.1154 173.452 74.5738V68.3816C173.614 68.3635 173.922 68.3274 174.175 68.3274C176.236 68.3274 177.664 69.7897 177.664 71.9019ZM174.681 67.6775C174.337 67.6775 174.048 67.6955 173.759 67.6955C173.47 67.6955 173.18 67.7136 172.801 67.7136C172.096 67.7136 171.228 67.6775 171.228 67.6775H171.102V68.2552L171.59 68.3274C171.987 68.3816 172.132 68.4899 172.132 68.9232V74.1947C172.132 74.9529 171.77 75.1154 171.517 75.1696L171.12 75.2418V75.8195H171.246C171.264 75.8195 172.005 75.7834 172.783 75.7834C173.253 75.7834 173.524 75.7834 173.777 75.8014C173.994 75.8014 174.193 75.8195 174.5 75.8195C177.302 75.8195 179.128 74.1586 179.128 71.577C179.11 69.1398 177.447 67.6775 174.681 67.6775Z" fill="#CC9900"></path>
<path d="M184.226 70.8908C183.395 70.3854 182.69 69.9701 182.69 69.3022C182.69 68.6703 183.214 68.237 183.955 68.237C184.895 68.237 185.492 68.7967 185.492 69.6452V69.7715H186.07L186.179 67.7676H186.034C185.727 67.7676 185.456 67.7135 185.148 67.6593C184.823 67.5871 184.498 67.533 184.1 67.533C182.328 67.533 181.533 68.6342 181.533 69.7174C181.533 71.1797 182.654 71.8115 183.648 72.3892C184.479 72.8586 185.184 73.2739 185.184 74.0501C185.184 74.8625 184.407 75.2958 183.63 75.2958C182.509 75.2958 181.967 74.4654 181.912 73.7071V73.5808H181.334V75.6749H181.461C181.858 75.6749 182.093 75.7471 182.382 75.8193C182.708 75.9096 183.069 76.0179 183.702 76.0179C185.329 76.0179 186.414 75.0611 186.414 73.653C186.432 72.2268 185.257 71.5227 184.226 70.8908Z" fill="#CC9900"></path>
<path d="M194.061 73.5086C193.753 74.321 193.265 75.1515 191.928 75.1515C191.711 75.1515 191.187 75.0973 191.187 74.5557V71.9922H191.964C192.597 71.9922 192.741 72.281 192.777 72.5518L192.85 72.9129H193.374V72.7684C193.374 72.7684 193.338 72.1546 193.338 71.5228C193.338 70.927 193.374 70.1146 193.374 70.0966V69.9521H192.85L192.741 70.5118C192.669 70.9812 192.488 71.252 191.855 71.252H191.187V68.3274C191.313 68.3093 191.53 68.2732 191.747 68.2732C192.832 68.2732 193.518 68.7606 193.663 69.6272L193.681 69.7355H194.187V67.6233H194.061C194.043 67.6233 192.362 67.6594 190.536 67.6594C190.011 67.6594 188.963 67.6233 188.945 67.6233H188.818V68.201L189.306 68.2732C189.704 68.3274 189.849 68.4357 189.849 68.869V74.1405C189.849 74.8987 189.487 75.0612 189.216 75.1154L188.818 75.1876V75.7653H188.963C188.963 75.7653 189.704 75.7292 190.5 75.7292C191.548 75.7292 194.079 75.7653 194.115 75.7653H194.223L194.621 73.4364L194.115 73.3823L194.061 73.5086Z" fill="#CC9900"></path>
<path d="M202.105 73.4184L202.069 73.5086C201.761 74.321 201.273 75.1515 199.935 75.1515C199.719 75.1515 199.194 75.0973 199.194 74.5557V71.9922H199.972C200.604 71.9922 200.749 72.281 200.785 72.5518L200.857 72.9129H201.382V72.7684C201.382 72.7684 201.346 72.1546 201.346 71.5228C201.346 70.927 201.382 70.1146 201.382 70.0966V69.9521H200.857L200.749 70.5118C200.677 70.9631 200.496 71.252 199.863 71.252H199.194V68.3274C199.321 68.3093 199.52 68.2732 199.755 68.2732C200.839 68.2732 201.526 68.7606 201.671 69.6272L201.689 69.7355H202.195V67.6233H202.069C202.051 67.6233 200.369 67.6594 198.544 67.6594C198.019 67.6594 196.971 67.6233 196.953 67.6233H196.826V68.201L197.314 68.2732C197.712 68.3274 197.857 68.4357 197.857 68.869V74.1405C197.857 74.8987 197.495 75.0612 197.224 75.1154L196.826 75.1876V75.7653H196.971C196.971 75.7653 197.712 75.7292 198.507 75.7292C199.556 75.7292 202.087 75.7653 202.123 75.7653H202.231L202.629 73.4364L202.105 73.4184Z" fill="#CC9900"></path>
<path d="M17.8243 50.9784H18.6558L18.8185 57.9288C15.4019 58.3801 11.2983 58.8134 7.7371 59.2648C5.36897 59.5717 3.1093 59.9688 3.1093 59.9688L2.98276 58.994L3.85048 58.7051C5.26051 58.2538 5.87514 57.0623 5.62205 55.1125L3.52508 39.2799C3.32623 37.7273 2.69352 37.3663 1.26541 37.3302L0.126541 37.3121L0 36.3373C0 36.3373 2.1512 36.1567 4.7905 35.8137C7.15863 35.5068 9.40022 35.1277 9.40022 35.1277L9.52676 36.1026L8.87598 36.3553C7.53825 36.8788 6.65246 38.0162 6.90555 39.984L8.98444 55.8166C9.18329 57.3692 10.0872 57.9108 11.4791 57.7302C16.0527 57.1164 17.2458 54.1918 17.8243 50.9784Z" fill="#183C41"></path>
<path d="M28.6172 46.4649L35.3419 45.7789L31.0395 36.5538L28.6172 46.4649ZM31.9796 31.9683L42.0848 52.1697C42.6452 53.271 43.5129 53.975 44.6879 54.0292L45.863 54.0834L45.9714 55.0582C45.9714 55.0582 43.9468 55.1305 41.3436 55.4013C38.1439 55.7262 36.3904 56.0512 36.3904 56.0512L36.282 55.0763L37.1497 54.8235C38.4512 54.4444 38.8128 53.975 38.7224 53.1266C38.6682 52.585 38.3247 51.8628 38.1078 51.4476L36.0108 47.1329L28.3279 47.9092L27.0987 53.3793C27.0083 53.7945 26.9721 54.1736 27.0083 54.4805C27.0987 55.2929 27.5325 55.5998 29.0149 55.654L30.3164 55.6901L30.4249 56.665C30.4249 56.665 28.2376 56.7913 25.6163 57.0621C23.6098 57.2607 22.2901 57.4954 22.2901 57.4954L22.1816 56.5205L23.0494 56.2678C24.4775 55.8526 24.9836 54.7333 25.4536 52.9099L30.6599 32.3474L31.9796 31.9683Z" fill="#183C41"></path>
<path d="M66.1082 30.0909L66.5239 35.561L65.5297 35.6332C64.6801 32.6544 61.8058 30.813 57.3949 31.156C52.1163 31.5532 48.9889 36.4275 49.4409 42.4031C50.0013 49.9493 55.0629 53.56 60.3777 53.1628C63.6497 52.9101 64.7343 51.3936 64.6078 49.841L64.3727 46.7539C64.2643 45.1833 63.6497 44.7861 62.2396 44.6959L61.1007 44.6056L61.0284 43.6127L69.9767 42.9447L70.049 43.9376L69.4525 44.1543C68.0786 44.6237 67.5001 45.8693 67.6086 47.4761L68.0063 52.6754C65.8009 52.8378 63.4327 54.3182 59.1484 54.6432C52.6044 55.1306 46.5123 51.3214 45.9339 43.703C45.4277 36.9872 49.5855 30.4158 57.9372 29.784C60.9923 29.5493 63.8847 30.2534 66.1082 30.0909Z" fill="#183C41"></path>
<path d="M77.2805 40.4896C77.6239 47.8733 82.3602 51.845 87.3134 51.6103C92.7005 51.3576 95.2855 46.5915 94.9963 40.616C94.6528 33.2322 89.9165 29.2605 84.9091 29.4952C79.5763 29.7299 77.0093 34.4959 77.2805 40.4896ZM73.7554 41.6811C73.43 34.9473 77.7505 28.5023 86.3553 28.1051C92.7728 27.7982 98.196 31.9866 98.5394 39.4425C98.8648 46.1763 94.5443 52.6213 85.9395 53.0185C79.5221 53.3073 74.0989 49.119 73.7554 41.6811Z" fill="#183C41"></path>
<path d="M119.149 48.0177C119.167 49.48 120.269 50.2201 121.806 50.2021C127.609 50.1299 132.707 48.5412 132.616 39.7854C132.544 33.6473 128.458 28.5925 121.517 28.6827C120.486 28.7008 119.293 28.8452 118.932 28.9535L119.149 48.0177ZM122.999 27.4912C132.074 27.3829 136.105 32.4017 136.177 38.7203C136.268 45.5985 131.676 51.2492 122.71 51.3575C120.757 51.3755 120.143 51.2853 117.485 51.3214C115.099 51.3575 112.803 51.4839 112.803 51.4839L112.785 50.4909L113.671 50.3104C115.135 50.0216 115.877 48.9203 115.84 46.9525L115.642 30.9755C115.623 29.4049 115.045 28.9716 113.635 28.7911L112.514 28.6286L112.496 27.6357C112.496 27.6357 115.117 27.7079 117.305 27.6898C119.582 27.6356 120.848 27.5273 122.999 27.4912Z" fill="#183C41"></path>
<path d="M149.084 50.3103V51.3032C149.084 51.3032 146.933 51.1949 144.276 51.1769C141.89 51.1588 139.594 51.2491 139.594 51.2491V50.2562L140.48 50.0937C141.944 49.8229 142.703 48.7397 142.721 46.7719L142.812 30.7949C142.83 29.2242 142.251 28.7729 140.841 28.5743L139.72 28.3938V27.4009C139.72 27.4009 141.871 27.5092 144.529 27.5273C146.915 27.5453 149.211 27.455 149.211 27.455V28.448L148.524 28.6104C147.114 28.9354 146.084 29.9644 146.084 31.9322L145.993 47.9092C145.993 49.4799 146.59 49.9131 147.964 50.1298L149.084 50.3103Z" fill="#183C41"></path>
<path d="M169.892 38.7563C170.434 38.7021 171.013 38.684 171.537 38.7021C172.567 38.7382 173.381 38.8646 173.381 38.8646C175.08 37.7994 176.165 35.8136 176.237 33.3945C176.309 30.849 174.556 29.152 171.971 29.0798C171.157 29.0617 170.561 29.17 170.181 29.2603L169.892 38.7563ZM169.603 48.3244C169.566 49.7867 170.633 50.563 172.17 50.6172C175.315 50.7074 177.322 48.6855 177.394 45.8692C177.557 40.4171 172.188 39.8214 170.506 39.7672C170.127 39.7492 169.856 39.7853 169.856 39.7853L169.603 48.3244ZM179.509 33.4486C179.4 37.2578 176.49 38.6479 174.7 39.0993C178.605 39.8936 181.045 42.6196 180.955 45.6526C180.847 49.2993 178.207 51.9351 173.128 51.7906C171.428 51.7365 170 51.592 167.813 51.5198C164.921 51.4296 163.131 51.4837 163.131 51.4837L163.167 50.4908L164.053 50.3464C165.535 50.1117 166.312 49.0465 166.367 47.0788L166.837 31.1198C166.891 29.5491 166.312 29.0978 164.921 28.8451L163.8 28.6465L163.818 27.6536C163.818 27.6536 165.698 27.816 168.626 27.9063C170.398 27.9605 171.266 27.8883 172.513 27.9244C177.213 28.0688 179.599 30.3615 179.509 33.4486Z" fill="#183C41"></path>
<path d="M192.469 30.1088L191.909 40.9588C192.505 40.5797 193.3 40.345 194.295 40.3991C195.072 40.4353 195.687 40.5977 196.084 40.7963C197.458 40.4894 199.139 38.4314 199.284 35.6331C199.465 32.0225 197.386 30.1089 194.24 29.9644C193.463 29.9283 192.849 30.0366 192.469 30.1088ZM196.066 44.1723C195.488 42.8905 194.692 41.7892 193.156 41.699C192.415 41.6629 191.89 41.8795 191.89 41.8795L191.511 49.1549C191.438 50.7256 192.017 51.1949 193.373 51.4657L194.602 51.7004L194.548 52.6933C194.548 52.6933 191.619 52.4406 189.649 52.3503C187.534 52.242 184.967 52.2059 184.967 52.2059L185.021 51.213L185.907 51.0866C187.389 50.888 188.185 49.8409 188.293 47.8732L189.107 31.9322C189.179 30.3616 188.637 29.8922 187.245 29.6214L186.124 29.3867L186.178 28.3938C186.178 28.3938 188.998 28.6465 190.968 28.7368C192.505 28.809 193.734 28.7729 195.271 28.8451C199.591 29.0618 203.062 31.5892 202.845 35.7414C202.628 39.9659 198.525 41.2476 197.259 41.4643C197.91 41.9337 198.434 42.5836 199.176 43.9556L201.544 48.3425C205.286 55.2569 210.637 60.8353 219.711 61.3047C223.761 61.5033 227.268 60.6006 227.358 58.7953C227.358 58.7953 227.467 58.7773 227.593 58.7773C227.901 58.7953 228.479 58.9578 228.425 59.698C228.316 61.9727 222.26 62.6226 219.26 62.4782C209.552 61.9907 202.411 57.8385 198.471 49.3896L196.066 44.1723Z" fill="#183C41"></path>
<path d="M218.23 41.5184L213.512 41.1753L216.387 34.6401L218.23 41.5184ZM224.991 49.5159C224.196 49.3354 223.654 48.7757 223.383 47.855L218.14 30.1629L218.068 29.9463L216.585 30.0727L209.391 46.0136C208.776 47.3856 208.27 48.0897 207.203 48.2161L206.245 48.3244L206.137 49.6603H206.444C206.534 49.6603 207.601 49.6603 209.156 49.7686C211.271 49.9311 213.042 50.1297 213.06 50.1297L213.35 50.1658L213.458 48.8299L212.175 48.5591C210.963 48.2883 210.927 48.0355 210.945 47.6203C210.963 47.4037 211.036 47.1329 211.144 46.826L212.825 42.7821L218.719 43.2154L219.731 46.7899C219.803 47.0065 220.002 47.6925 219.984 48.1258C219.948 48.5591 219.839 48.9021 218.719 49.0104L217.76 49.1187L217.652 50.4547H217.959C218.05 50.4547 219.496 50.4547 222.009 50.6352C224.124 50.7977 225.751 51.0143 225.769 51.0143L226.058 51.0504L226.166 49.7145L224.991 49.5159Z" fill="#183C41"></path>
<path d="M238.15 54.9138L238.06 55.9067C238.06 55.9067 235.927 55.5998 233.269 55.3651C230.883 55.1485 228.605 55.0402 228.605 55.0402L228.696 54.0472L229.6 53.957C231.082 53.8125 231.932 52.8016 232.112 50.8338L233.577 34.929C233.721 33.3583 233.179 32.8709 231.805 32.5459L230.702 32.2751L230.793 31.2822C230.793 31.2822 232.926 31.5891 235.583 31.8238C237.97 32.0405 240.247 32.1488 240.247 32.1488L240.157 33.1417L239.452 33.25C238.024 33.4667 236.921 34.3874 236.722 36.3552L235.258 52.278C235.113 53.8306 235.692 54.3361 237.03 54.661L238.15 54.9138Z" fill="#183C41"></path>
<path d="M260.096 39.8936L259.283 39.8033C259.12 37.2759 257.511 35.1456 253.606 34.7123C252.684 34.604 251.853 34.6582 251.473 34.7123C251.256 36.5718 250.407 44.2263 250.407 44.2263L252.811 44.4971C254.908 44.7318 255.703 43.757 256.155 42.2585L256.553 40.9226L257.403 41.0129C257.403 41.0129 257.023 43.5042 256.824 45.3095C256.607 47.2051 256.499 49.0826 256.499 49.0826L255.649 48.9924L255.595 48.198C255.541 46.9163 254.836 46.0497 252.974 45.8511L250.262 45.5442L249.34 53.6681C249.177 55.1304 250.172 55.997 251.708 56.1595C255.992 56.6469 257.891 54.1014 259.12 51.7003L259.915 51.8989L258.162 58.037C258.162 58.037 250.497 57.0802 247.279 56.7191C244.839 56.4483 242.615 56.3039 242.615 56.3039L242.724 55.329L243.628 55.2568C245.11 55.1485 245.978 54.1556 246.213 52.1878L248.002 36.301C248.183 34.7484 247.659 34.2429 246.285 33.8819L245.182 33.593L245.291 32.6182C245.291 32.6182 248.472 33.0876 250.063 33.25C255.667 33.8819 260.729 34.3513 260.729 34.3513L260.096 39.8936Z" fill="#183C41"></path>
<path d="M278.969 42.403L277.992 42.2585C278.372 39.4603 276.6 37.3661 273.636 36.9509C271.069 36.6079 269.225 37.9258 268.954 39.9477C268.267 44.8762 279.421 47.2231 278.408 54.4805C277.83 58.5966 274.305 60.763 269.713 60.1311C266.206 59.6437 265.79 58.5605 263.133 58.1995L263.892 52.7113L264.868 52.8377C264.651 55.3471 266.079 58.2717 269.695 58.7591C272.153 59.1021 274.919 58.037 275.299 55.329C276.076 49.7686 265.085 48.4869 266.152 40.7962C266.622 37.4564 269.46 35.0012 274.305 35.6691C276.528 35.976 278.065 36.9148 280.017 37.1856L278.969 42.403Z" fill="#183C41"></path>
</svg>